STARTFONT 2.1
FONT -FontForge-Everyday_Typical_Bold_Original-Book-R-Normal--7-70-75-75-P-61-ISO10646-1
SIZE 7 75 75
FONTBOUNDINGBOX 10 9 0 2
COMMENT "Generated by fontforge, http://fontforge.sourceforge.net"
STARTPROPERTIES 38
FOUNDRY "FontForge"
FAMILY_NAME "Everyday_Typical_Bold_Original"
WEIGHT_NAME "Book"
SLANT "R"
SETWIDTH_NAME "Normal"
ADD_STYLE_NAME ""
PIXEL_SIZE 7
POINT_SIZE 70
RESOLUTION_X 75
RESOLUTION_Y 75
SPACING "P"
AVERAGE_WIDTH 61
CHARSET_REGISTRY "ISO10646"
CHARSET_ENCODING "1"
FONTNAME_REGISTRY ""
CHARSET_COLLECTIONS "ISO10646-1"
FONT_NAME "Everyday_Typical_Bold_Original"
FACE_NAME "Everyday_Typical_Bold_Original Regular"
FONT_VERSION "1.0"
FONT_ASCENT 5
FONT_DESCENT 2
UNDERLINE_POSITION 1
UNDERLINE_THICKNESS 1
X_HEIGHT 8
CAP_HEIGHT 10
RAW_ASCENT 799
RAW_DESCENT 200
NORM_SPACE 6
RELATIVE_WEIGHT 40
RELATIVE_SETWIDTH 50
SUPERSCRIPT_X 0
SUPERSCRIPT_Y 3
SUPERSCRIPT_SIZE 3
SUBSCRIPT_X 0
SUBSCRIPT_Y -1
SUBSCRIPT_SIZE 3
AVG_LOWERCASE_WIDTH 60
AVG_UPPERCASE_WIDTH 72
ENDPROPERTIES
CHARS 98
STARTCHAR uni000D
ENCODING 13
SWIDTH 142 0
DWIDTH 1 0
BBX 1 1 0 0
BITMAP
00
ENDCHAR
STARTCHAR space
ENCODING 32
SWIDTH 857 0
DWIDTH 6 0
BBX 1 1 0 0
BITMAP
00
ENDCHAR
STARTCHAR exclam
ENCODING 33
SWIDTH 428 0
DWIDTH 3 0
BBX 2 8 0 3
BITMAP
C0
C0
C0
C0
C0
00
C0
C0
ENDCHAR
STARTCHAR quotedbl
ENCODING 34
SWIDTH 571 0
DWIDTH 4 0
BBX 3 2 0 9
BITMAP
A0
A0
ENDCHAR
STARTCHAR numbersign
ENCODING 35
SWIDTH 1000 0
DWIDTH 7 0
BBX 6 6 0 4
BITMAP
68
FC
68
68
FC
68
ENDCHAR
STARTCHAR dollar
ENCODING 36
SWIDTH 857 0
DWIDTH 6 0
BBX 5 8 0 3
BITMAP
50
78
D0
F0
78
58
F0
50
ENDCHAR
STARTCHAR percent
ENCODING 37
SWIDTH 1142 0
DWIDTH 8 0
BBX 7 7 0 4
BITMAP
86
8E
1C
38
70
E2
C2
ENDCHAR
STARTCHAR ampersand
ENCODING 38
SWIDTH 1142 0
DWIDTH 8 0
BBX 7 7 0 4
BITMAP
70
C8
C8
72
CE
CC
78
ENDCHAR
STARTCHAR quotesingle
ENCODING 39
SWIDTH 285 0
DWIDTH 2 0
BBX 1 2 0 9
BITMAP
80
80
ENDCHAR
STARTCHAR parenleft
ENCODING 40
SWIDTH 714 0
DWIDTH 5 0
BBX 4 9 0 2
BITMAP
30
60
C0
C0
C0
C0
C0
60
30
ENDCHAR
STARTCHAR parenright
ENCODING 41
SWIDTH 714 0
DWIDTH 5 0
BBX 4 9 0 2
BITMAP
C0
60
30
30
30
30
30
60
C0
ENDCHAR
STARTCHAR asterisk
ENCODING 42
SWIDTH 1000 0
DWIDTH 7 0
BBX 6 5 0 5
BITMAP
30
B4
78
B4
30
ENDCHAR
STARTCHAR plus
ENCODING 43
SWIDTH 1000 0
DWIDTH 7 0
BBX 6 5 0 5
BITMAP
30
30
FC
30
30
ENDCHAR
STARTCHAR comma
ENCODING 44
SWIDTH 571 0
DWIDTH 4 0
BBX 3 2 0 3
BITMAP
60
C0
ENDCHAR
STARTCHAR hyphen
ENCODING 45
SWIDTH 857 0
DWIDTH 6 0
BBX 5 1 0 7
BITMAP
F8
ENDCHAR
STARTCHAR period
ENCODING 46
SWIDTH 428 0
DWIDTH 3 0
BBX 2 2 0 3
BITMAP
C0
C0
ENDCHAR
STARTCHAR slash
ENCODING 47
SWIDTH 714 0
DWIDTH 5 0
BBX 4 7 0 4
BITMAP
30
30
60
60
60
C0
C0
ENDCHAR
STARTCHAR zero
ENCODING 48
SWIDTH 1000 0
DWIDTH 7 0
BBX 6 7 0 4
BITMAP
78
C4
CC
D4
E4
C4
78
ENDCHAR
STARTCHAR one
ENCODING 49
SWIDTH 714 0
DWIDTH 5 0
BBX 4 7 0 4
BITMAP
60
E0
60
60
60
60
F0
ENDCHAR
STARTCHAR two
ENCODING 50
SWIDTH 1000 0
DWIDTH 7 0
BBX 6 7 0 4
BITMAP
78
8C
0C
78
C0
C4
FC
ENDCHAR
STARTCHAR three
ENCODING 51
SWIDTH 1000 0
DWIDTH 7 0
BBX 6 7 0 4
BITMAP
78
8C
0C
38
0C
8C
78
ENDCHAR
STARTCHAR four
ENCODING 52
SWIDTH 1000 0
DWIDTH 7 0
BBX 6 7 0 4
BITMAP
8C
8C
8C
8C
FC
0C
0C
ENDCHAR
STARTCHAR five
ENCODING 53
SWIDTH 1000 0
DWIDTH 7 0
BBX 6 7 0 4
BITMAP
FC
C4
C0
F8
0C
8C
F8
ENDCHAR
STARTCHAR six
ENCODING 54
SWIDTH 1000 0
DWIDTH 7 0
BBX 6 7 0 4
BITMAP
78
C0
F8
C4
C4
C4
78
ENDCHAR
STARTCHAR seven
ENCODING 55
SWIDTH 1000 0
DWIDTH 7 0
BBX 6 7 0 4
BITMAP
FC
8C
0C
18
18
30
30
ENDCHAR
STARTCHAR eight
ENCODING 56
SWIDTH 1000 0
DWIDTH 7 0
BBX 6 7 0 4
BITMAP
78
C4
C4
78
C4
C4
78
ENDCHAR
STARTCHAR nine
ENCODING 57
SWIDTH 1000 0
DWIDTH 7 0
BBX 6 7 0 4
BITMAP
78
8C
8C
8C
7C
0C
78
ENDCHAR
STARTCHAR colon
ENCODING 58
SWIDTH 428 0
DWIDTH 3 0
BBX 2 6 0 3
BITMAP
C0
C0
00
00
C0
C0
ENDCHAR
STARTCHAR semicolon
ENCODING 59
SWIDTH 571 0
DWIDTH 4 0
BBX 3 6 0 3
BITMAP
60
60
00
00
60
C0
ENDCHAR
STARTCHAR less
ENCODING 60
SWIDTH 1000 0
DWIDTH 7 0
BBX 6 5 0 5
BITMAP
1C
78
E0
78
1C
ENDCHAR
STARTCHAR equal
ENCODING 61
SWIDTH 857 0
DWIDTH 6 0
BBX 5 4 0 5
BITMAP
F8
00
00
F8
ENDCHAR
STARTCHAR greater
ENCODING 62
SWIDTH 1000 0
DWIDTH 7 0
BBX 6 5 0 5
BITMAP
E0
78
1C
78
E0
ENDCHAR
STARTCHAR question
ENCODING 63
SWIDTH 1000 0
DWIDTH 7 0
BBX 6 8 0 3
BITMAP
78
CC
0C
18
30
00
30
30
ENDCHAR
STARTCHAR at
ENCODING 64
SWIDTH 1142 0
DWIDTH 8 0
BBX 7 7 0 4
BITMAP
7C
C6
D6
D6
DE
C0
7E
ENDCHAR
STARTCHAR A
ENCODING 65
SWIDTH 1000 0
DWIDTH 7 0
BBX 6 7 0 4
BITMAP
78
C4
C4
C4
FC
C4
C4
ENDCHAR
STARTCHAR B
ENCODING 66
SWIDTH 1000 0
DWIDTH 7 0
BBX 6 7 0 4
BITMAP
F8
C4
C4
F8
C4
C4
F8
ENDCHAR
STARTCHAR C
ENCODING 67
SWIDTH 1000 0
DWIDTH 7 0
BBX 6 7 0 4
BITMAP
78
C4
C0
C0
C0
C4
78
ENDCHAR
STARTCHAR D
ENCODING 68
SWIDTH 1000 0
DWIDTH 7 0
BBX 6 7 0 4
BITMAP
F8
C4
C4
C4
C4
C4
F8
ENDCHAR
STARTCHAR E
ENCODING 69
SWIDTH 1000 0
DWIDTH 7 0
BBX 6 7 0 4
BITMAP
FC
C0
C0
F8
C0
C0
FC
ENDCHAR
STARTCHAR F
ENCODING 70
SWIDTH 1000 0
DWIDTH 7 0
BBX 6 7 0 4
BITMAP
FC
C0
C0
F8
C0
C0
C0
ENDCHAR
STARTCHAR G
ENCODING 71
SWIDTH 1000 0
DWIDTH 7 0
BBX 6 7 0 4
BITMAP
78
C4
C0
DC
C4
C4
78
ENDCHAR
STARTCHAR H
ENCODING 72
SWIDTH 1000 0
DWIDTH 7 0
BBX 6 7 0 4
BITMAP
C4
C4
C4
FC
C4
C4
C4
ENDCHAR
STARTCHAR I
ENCODING 73
SWIDTH 714 0
DWIDTH 5 0
BBX 4 7 0 4
BITMAP
F0
60
60
60
60
60
F0
ENDCHAR
STARTCHAR J
ENCODING 74
SWIDTH 1000 0
DWIDTH 7 0
BBX 6 7 0 4
BITMAP
7C
0C
0C
0C
0C
8C
78
ENDCHAR
STARTCHAR K
ENCODING 75
SWIDTH 1000 0
DWIDTH 7 0
BBX 6 7 0 4
BITMAP
C4
C4
C8
F0
C8
C4
C4
ENDCHAR
STARTCHAR L
ENCODING 76
SWIDTH 857 0
DWIDTH 6 0
BBX 5 7 0 4
BITMAP
C0
C0
C0
C0
C0
C0
78
ENDCHAR
STARTCHAR M
ENCODING 77
SWIDTH 1571 0
DWIDTH 11 0
BBX 10 7 0 4
BITMAP
FF80
C440
C440
C440
C440
C440
C040
ENDCHAR
STARTCHAR N
ENCODING 78
SWIDTH 1000 0
DWIDTH 7 0
BBX 6 7 0 4
BITMAP
F8
C4
C4
C4
C4
C4
C4
ENDCHAR
STARTCHAR O
ENCODING 79
SWIDTH 1000 0
DWIDTH 7 0
BBX 6 7 0 4
BITMAP
78
C4
C4
C4
C4
C4
78
ENDCHAR
STARTCHAR P
ENCODING 80
SWIDTH 1000 0
DWIDTH 7 0
BBX 6 7 0 4
BITMAP
F8
C4
C4
C4
F8
C0
C0
ENDCHAR
STARTCHAR Q
ENCODING 81
SWIDTH 1142 0
DWIDTH 8 0
BBX 7 7 0 4
BITMAP
78
C4
C4
C4
C4
C4
7E
ENDCHAR
STARTCHAR R
ENCODING 82
SWIDTH 1000 0
DWIDTH 7 0
BBX 6 7 0 4
BITMAP
F8
C4
C4
C4
F8
C4
C4
ENDCHAR
STARTCHAR S
ENCODING 83
SWIDTH 1000 0
DWIDTH 7 0
BBX 6 7 0 4
BITMAP
78
C4
C0
78
0C
8C
78
ENDCHAR
STARTCHAR T
ENCODING 84
SWIDTH 1000 0
DWIDTH 7 0
BBX 6 7 0 4
BITMAP
FC
30
30
30
30
30
30
ENDCHAR
STARTCHAR U
ENCODING 85
SWIDTH 1000 0
DWIDTH 7 0
BBX 6 7 0 4
BITMAP
8C
8C
8C
8C
8C
8C
7C
ENDCHAR
STARTCHAR V
ENCODING 86
SWIDTH 1000 0
DWIDTH 7 0
BBX 6 7 0 4
BITMAP
C4
C4
C4
C4
C8
D0
60
ENDCHAR
STARTCHAR W
ENCODING 87
SWIDTH 1571 0
DWIDTH 11 0
BBX 10 7 0 4
BITMAP
C040
C440
C440
C440
C440
C440
7B80
ENDCHAR
STARTCHAR X
ENCODING 88
SWIDTH 1000 0
DWIDTH 7 0
BBX 6 7 0 4
BITMAP
C4
C4
68
30
68
C4
C4
ENDCHAR
STARTCHAR Y
ENCODING 89
SWIDTH 1000 0
DWIDTH 7 0
BBX 6 7 0 4
BITMAP
C4
C4
C4
68
30
30
30
ENDCHAR
STARTCHAR Z
ENCODING 90
SWIDTH 1000 0
DWIDTH 7 0
BBX 6 7 0 4
BITMAP
FC
8C
1C
38
70
E4
FC
ENDCHAR
STARTCHAR bracketleft
ENCODING 91
SWIDTH 714 0
DWIDTH 5 0
BBX 4 9 0 2
BITMAP
F0
C0
C0
C0
C0
C0
C0
C0
F0
ENDCHAR
STARTCHAR backslash
ENCODING 92
SWIDTH 714 0
DWIDTH 5 0
BBX 4 7 0 4
BITMAP
C0
C0
60
60
60
30
30
ENDCHAR
STARTCHAR bracketright
ENCODING 93
SWIDTH 714 0
DWIDTH 5 0
BBX 4 9 0 2
BITMAP
F0
30
30
30
30
30
30
30
F0
ENDCHAR
STARTCHAR asciicircum
ENCODING 94
SWIDTH 1000 0
DWIDTH 7 0
BBX 6 3 0 8
BITMAP
30
78
DC
ENDCHAR
STARTCHAR underscore
ENCODING 95
SWIDTH 1142 0
DWIDTH 8 0
BBX 7 1 0 3
BITMAP
FE
ENDCHAR
STARTCHAR grave
ENCODING 96
SWIDTH 428 0
DWIDTH 3 0
BBX 2 2 0 9
BITMAP
80
C0
ENDCHAR
STARTCHAR a
ENCODING 97
SWIDTH 857 0
DWIDTH 6 0
BBX 5 5 0 4
BITMAP
70
18
78
98
78
ENDCHAR
STARTCHAR b
ENCODING 98
SWIDTH 857 0
DWIDTH 6 0
BBX 5 7 0 4
BITMAP
C0
C0
F0
C8
C8
C8
F0
ENDCHAR
STARTCHAR c
ENCODING 99
SWIDTH 857 0
DWIDTH 6 0
BBX 5 5 0 4
BITMAP
70
C0
C0
C0
78
ENDCHAR
STARTCHAR d
ENCODING 100
SWIDTH 857 0
DWIDTH 6 0
BBX 5 7 0 4
BITMAP
18
18
78
98
98
98
78
ENDCHAR
STARTCHAR e
ENCODING 101
SWIDTH 857 0
DWIDTH 6 0
BBX 5 5 0 4
BITMAP
70
C8
F8
C0
78
ENDCHAR
STARTCHAR f
ENCODING 102
SWIDTH 714 0
DWIDTH 5 0
BBX 4 7 0 4
BITMAP
70
C0
C0
E0
C0
C0
C0
ENDCHAR
STARTCHAR g
ENCODING 103
SWIDTH 857 0
DWIDTH 6 0
BBX 5 7 0 2
BITMAP
70
98
98
98
78
18
70
ENDCHAR
STARTCHAR h
ENCODING 104
SWIDTH 857 0
DWIDTH 6 0
BBX 5 7 0 4
BITMAP
C0
C0
F0
C8
C8
C8
C8
ENDCHAR
STARTCHAR i
ENCODING 105
SWIDTH 428 0
DWIDTH 3 0
BBX 2 7 0 4
BITMAP
C0
00
C0
C0
C0
C0
C0
ENDCHAR
STARTCHAR j
ENCODING 106
SWIDTH 857 0
DWIDTH 6 0
BBX 5 9 0 2
BITMAP
18
00
18
18
18
18
18
D8
70
ENDCHAR
STARTCHAR k
ENCODING 107
SWIDTH 857 0
DWIDTH 6 0
BBX 5 7 0 4
BITMAP
C0
C0
C8
D0
E0
D0
C8
ENDCHAR
STARTCHAR l
ENCODING 108
SWIDTH 571 0
DWIDTH 4 0
BBX 3 7 0 4
BITMAP
C0
C0
C0
C0
C0
C0
60
ENDCHAR
STARTCHAR m
ENCODING 109
SWIDTH 1285 0
DWIDTH 9 0
BBX 8 5 0 4
BITMAP
76
C9
C9
C9
C1
ENDCHAR
STARTCHAR n
ENCODING 110
SWIDTH 857 0
DWIDTH 6 0
BBX 5 5 0 4
BITMAP
F0
C8
C8
C8
C8
ENDCHAR
STARTCHAR o
ENCODING 111
SWIDTH 857 0
DWIDTH 6 0
BBX 5 5 0 4
BITMAP
70
C8
C8
C8
70
ENDCHAR
STARTCHAR p
ENCODING 112
SWIDTH 857 0
DWIDTH 6 0
BBX 5 7 0 2
BITMAP
F0
C8
C8
C8
F0
C0
C0
ENDCHAR
STARTCHAR q
ENCODING 113
SWIDTH 857 0
DWIDTH 6 0
BBX 5 7 0 2
BITMAP
78
98
98
98
78
18
18
ENDCHAR
STARTCHAR r
ENCODING 114
SWIDTH 857 0
DWIDTH 6 0
BBX 5 5 0 4
BITMAP
70
C8
C0
C0
C0
ENDCHAR
STARTCHAR s
ENCODING 115
SWIDTH 857 0
DWIDTH 6 0
BBX 5 5 0 4
BITMAP
78
E0
70
38
F0
ENDCHAR
STARTCHAR t
ENCODING 116
SWIDTH 714 0
DWIDTH 5 0
BBX 4 7 0 4
BITMAP
C0
C0
E0
C0
C0
C0
70
ENDCHAR
STARTCHAR u
ENCODING 117
SWIDTH 857 0
DWIDTH 6 0
BBX 5 5 0 4
BITMAP
98
98
98
98
78
ENDCHAR
STARTCHAR v
ENCODING 118
SWIDTH 1000 0
DWIDTH 7 0
BBX 6 5 0 4
BITMAP
C4
C4
C8
D0
60
ENDCHAR
STARTCHAR w
ENCODING 119
SWIDTH 1285 0
DWIDTH 9 0
BBX 8 5 0 4
BITMAP
C1
C9
C9
C9
76
ENDCHAR
STARTCHAR x
ENCODING 120
SWIDTH 857 0
DWIDTH 6 0
BBX 5 5 0 4
BITMAP
C8
C8
70
C8
C8
ENDCHAR
STARTCHAR y
ENCODING 121
SWIDTH 857 0
DWIDTH 6 0
BBX 5 7 0 2
BITMAP
98
98
98
98
78
18
F0
ENDCHAR
STARTCHAR z
ENCODING 122
SWIDTH 857 0
DWIDTH 6 0
BBX 5 5 0 4
BITMAP
F8
38
70
E0
F8
ENDCHAR
STARTCHAR braceleft
ENCODING 123
SWIDTH 857 0
DWIDTH 6 0
BBX 5 9 0 2
BITMAP
38
60
60
60
C0
60
60
60
38
ENDCHAR
STARTCHAR bar
ENCODING 124
SWIDTH 428 0
DWIDTH 3 0
BBX 2 9 0 2
BITMAP
C0
C0
C0
C0
C0
C0
C0
C0
C0
ENDCHAR
STARTCHAR braceright
ENCODING 125
SWIDTH 857 0
DWIDTH 6 0
BBX 5 9 0 2
BITMAP
E0
30
30
30
18
30
30
30
E0
ENDCHAR
STARTCHAR asciitilde
ENCODING 126
SWIDTH 1142 0
DWIDTH 8 0
BBX 7 3 0 8
BITMAP
66
D6
CC
ENDCHAR
STARTCHAR uni220E
ENCODING 8718
SWIDTH 1000 0
DWIDTH 7 0
BBX 6 7 0 4
BITMAP
FC
FC
FC
FC
FC
FC
FC
ENDCHAR
STARTCHAR .notdef
ENCODING -1
SWIDTH 142 0
DWIDTH 1 0
BBX 1 1 0 0
BITMAP
00
ENDCHAR
ENDFONT
